<svg width="26" height="10" viewBox="0 0 26 10" fill="none" xmlns="http://www.w3.org/2000/svg">
<path d="M21.0245 9.27415C20.1547 8.40441 19.1719 7.70437 18.1324 7.17404C17.9678 7.09276 17.8294 6.96673 17.7331 6.8104C17.6368 6.65407 17.5865 6.47376 17.5879 6.29016L17.8708 3.787C14.9151 2.74048 11.2381 2.66977 8.16928 3.74457L8.37434 6.29723C8.36727 6.68614 8.14807 7.01848 7.8228 7.18818C6.77628 7.71144 5.80047 8.41855 4.93073 9.28829C4.54889 9.67013 3.9125 9.67013 3.53066 9.28829L1.08407 6.8417C0.702234 6.45986 0.41232 5.83054 0.94265 5.30021C7.51167 -1.26881 18.4365 -1.26174 24.9984 5.30021C25.5005 5.80225 25.253 6.44572 24.8641 6.83463L22.4246 9.27415C22.0427 9.65599 21.4063 9.65599 21.0245 9.27415Z" fill="white"/>
</svg>
